# xmcd
#
# Track frame offsets: 
#        150
#        13950
#        26175
#        37125
#        48600
#        63600
#        78525
#        91875
#        106125
#        119700
#        130650
#        150375
#        161700
#        174375
#        189000
#        201975
#
# Disc length: 2835 seconds
#
# Revision: 3
# Processed by: cddbd v1.5.2PL0 Copyright (c) Steve Scherf et al.
# Submitted via: ExactAudioCopy v0.99pb5
#
DISCID=db0b1110
DTITLE=Pete Tex - Melodien der Zärtlichkeit
DYEAR=1992
DGENRE=Instrumental
TTITLE0=Slow Motion
TTITLE1=Singing Stars
TTITLE2=Glücksmelodie
TTITLE3=Silberfäden
TTITLE4=Herbstwind
TTITLE5=La Paloma
TTITLE6=Ein Hauch Lavendel
TTITLE7=Memory Melody
TTITLE8=Tuff
TTITLE9=Dreamboad Melody
TTITLE10=Zauber der Berge
TTITLE11=Moskauer Nächte
TTITLE12=Paradiso
TTITLE13=Cry
TTITLE14=Tropicana
TTITLE15=Rendezvous
EXTD=YEAR: 1992
EXTT0=
EXTT1=
EXTT2=
EXTT3=
EXTT4=
EXTT5=
EXTT6=
EXTT7=
EXTT8=
EXTT9=
EXTT10=
EXTT11=
EXTT12=
EXTT13=
EXTT14=
EXTT15=
PLAYORDER=
